<?xml version="1.0" encoding="UTF-8"?>
<svg id="Layer_2" data-name="Layer 2" xmlns="http://www.w3.org/2000/svg" viewBox="0 0 565.08 187">
  <defs>
    <style>
      .cls-1 {
        fill: #fff;
      }
    </style>
  </defs>
  <g id="LOGO_MONO_LIGHT-VERTICAL">
    <g id="Logo">
      <g>
        <path class="cls-1" d="M11.29,96.31L0,85.02v-13.81h15.51v6.25l3.34,3.34h21.05l3.34-3.34v-8.44l-3.34-3.34H11.62L.33,54.38v-23.52l11.29-11.29h34.81l11.29,11.29v13.81h-15.51v-6.25l-3.34-3.34h-19.68l-3.4,3.34v8.39l3.4,3.34h28.28l11.29,11.29v23.57l-11.29,11.29H11.29ZM14.91,88.53h27.9l7.89-7.56v-16.44l-6.25-6.52H15.9l-7.73-8v-15.51l7.51-7.18h27.3l6.91,7.18v3.07-3.07l-6.91-7.18H15.68l-7.51,7.18v15.51l7.73,8h28.56l6.25,6.52v16.44l-7.89,7.56H14.91l-6.8-6.47v-3.73,3.73l6.8,6.47Z"/>
        <path class="cls-1" d="M87.17,96.31v-61.23h-19.02v-15.51h53.5v15.51h-19.02v61.23h-15.46ZM94.95,88.53h-.05V27.3h19.57-39.14,19.62v61.23Z"/>
        <path class="cls-1" d="M132.03,96.31V30.86l11.29-11.29h35.41l11.29,11.29v65.45h-15.46v-22.58h-27.08v22.58h-15.46ZM139.7,66.27v-32.18l6.91-6.85h29.05l6.91,6.85v32.18h-42.87ZM139.76,88.53h-.05v-22.31h42.87v22.31h-.05v-54.43l-6.85-6.8h-29.05l-6.85,6.8v54.43ZM147.49,58.27h27.08v-19.84l-3.34-3.34h-20.39l-3.34,3.34v19.84Z"/>
        <path class="cls-1" d="M224,96.31l-20.61-20.61V19.57h15.51v48.57l11.18,11.13h6.3l11.13-11.13V19.57h15.51v56.13l-20.61,20.61h-18.42ZM227.78,88.53h10.85l16.66-16.39V27.3v44.84l-16.66,16.39h-10.85l-16.66-16.5V27.3v44.73l16.66,16.5Z"/>
        <path class="cls-1" d="M276.39,96.31V19.57h49.88v15.51h-34.37v14.75h30.59v15.51h-30.59v15.46h34.37v15.51h-49.88ZM284.34,88.53h34.81-34.81v-30.97h30.97-30.97v-30.26h34.81-34.81v61.23Z"/>
        <path class="cls-1" d="M339.64,96.31V19.57h42.87l11.29,11.29v19.57l-4.88,4.88,7.35,7.4v22.31l-11.29,11.29h-45.33ZM347.54,88.75h32.78l8.11-8.11v-14.8l-8.55-8.55h-3.67l9.87-11.07v-11.24l-7.07-7.89h-31.46v61.67ZM347.54,57.28v-30.2h31.46l7.07,7.89v11.24l-9.87,11.07h-28.67ZM347.54,88.75v-31.46h32.34l8.55,8.55v14.8l-8.11,8.11h-32.78ZM355.16,49.39h17.71l5.48-5.43v-5.54l-3.34-3.34h-19.84v14.31ZM355.16,80.8h22.25l3.34-3.34v-7.73l-4.82-4.82h-20.77v15.9Z"/>
        <path class="cls-1" d="M409.63,96.31V19.57h29.76l18.97,61.01h2.36V19.57h15.51v76.74h-29.76l-19.08-61.17h-2.25v61.17h-15.51ZM417.36,88.53h-.06V27.3h15.95l19.4,61.23h15.79V27.3h.05v61.23h-15.84l-19.4-61.23h-15.9v61.23Z"/>
        <path class="cls-1" d="M488.61,96.31v-15.51h15.02v-45.72h-15.02v-15.51h45.44v15.51h-14.97v45.72h14.97v15.51h-45.44ZM527.2,88.53h-15.84V27.3h15.84-31.68,15.84v61.23h-15.84,31.68Z"/>
        <polygon class="cls-1" points="504.61 14.47 517.99 0 533.72 0 518.15 14.47 504.61 14.47"/>
        <polygon class="cls-1" points="516.02 11.6 515.97 11.6 522.55 4.69 522.6 4.69 516.02 11.6"/>
      </g>
      <g>
        <g>
          <path class="cls-1" d="M0,186.83v-76.74h45.55l11.29,11.29v30.2l-12.33,12.33H15.51v22.91H0ZM7.67,155.86v-38.04h34.53l7.35,7.35v22.36l-8.33,8.33H7.67ZM7.73,179.05h-.06v-23.19h33.55l8.33-8.33v-22.36l-7.35-7.35H7.73v61.23ZM15.51,148.41h21.43l4.44-4.38v-15.07l-3.34-3.34H15.51v22.8Z"/>
          <path class="cls-1" d="M69.95,186.83v-76.74h47.31l11.29,11.29v23.79l-6.69,6.14,6.69,7.29v28.23h-15.51v-22.75l-5.48-5.48h-22.09v28.23h-15.51ZM77.74,150.54v-32.78h35.68l7.13,7.07v17.32l-9.26,8.39h-33.55ZM77.79,179.05h-.06v-28.56h33.6l9.59,10.8v17.76h-.05v-17.76l-9.54-10.8,9.15-8.33v-17.32l-7.07-7.02h-35.63v61.23ZM85.47,143.09h24.23l3.34-3.4v-10.74l-3.34-3.34h-24.23v17.49Z"/>
          <path class="cls-1" d="M239.96,186.83l-11.29-11.29v-54.16l11.29-11.29h34.86l11.29,11.29v13.81h-15.46v-6.25l-3.34-3.34h-19.9l-3.29,3.45v38.97l3.29,3.29h19.9l3.34-3.34v-7.57h-15.18v-15.46h30.64v30.59l-11.29,11.29h-34.86ZM244.13,179.05h26.59l7.67-7.67v-18.53h-14.75,14.75v18.53l-7.67,7.67h-26.59l-7.67-7.67v-46.21l7.35-7.35h27.46l7.13,7.35v2.91-2.91l-7.13-7.35h-27.46l-7.35,7.35v46.21l7.67,7.67Z"/>
          <path class="cls-1" d="M299.27,186.83v-76.74h47.31l11.29,11.29v23.79l-6.69,6.14,6.69,7.29v28.23h-15.51v-22.75l-5.48-5.48h-22.09v28.23h-15.51ZM307.06,150.54v-32.78h35.68l7.13,7.07v17.32l-9.26,8.39h-33.55ZM307.11,179.05h-.06v-28.56h33.6l9.59,10.8v17.76h-.05v-17.76l-9.54-10.8,9.15-8.33v-17.32l-7.07-7.02h-35.63v61.23ZM314.79,143.09h24.23l3.34-3.4v-10.74l-3.34-3.34h-24.23v17.49Z"/>
          <path class="cls-1" d="M372.47,186.83v-76.74h49.88v15.51h-34.37v14.75h30.59v15.51h-30.59v15.46h34.37v15.51h-49.88ZM380.42,179.05h34.81-34.81v-30.97h30.97-30.97v-30.26h34.81-34.81v61.23Z"/>
          <path class="cls-1" d="M446.25,186.83l-11.29-11.29v-13.81h15.51v6.25l3.34,3.34h21.05l3.34-3.34v-8.44l-3.34-3.34h-28.28l-11.29-11.29v-23.52l11.29-11.29h34.81l11.29,11.29v13.81h-15.51v-6.25l-3.34-3.34h-19.68l-3.4,3.34v8.39l3.4,3.34h28.28l11.29,11.29v23.57l-11.29,11.29h-36.18ZM449.86,179.05h27.9l7.89-7.56v-16.44l-6.25-6.52h-28.56l-7.73-8v-15.51l7.51-7.18h27.3l6.91,7.18v3.07-3.07l-6.91-7.18h-27.3l-7.51,7.18v15.51l7.73,8h28.56l6.25,6.52v16.44l-7.89,7.56h-27.9l-6.8-6.47v-3.73,3.73l6.8,6.47Z"/>
          <path class="cls-1" d="M517.61,186.83l-11.29-11.29v-13.81h15.51v6.25l3.34,3.34h21.05l3.34-3.34v-8.44l-3.34-3.34h-28.28l-11.29-11.29v-23.52l11.29-11.29h34.81l11.29,11.29v13.81h-15.51v-6.25l-3.34-3.34h-19.68l-3.4,3.34v8.39l3.4,3.34h28.28l11.29,11.29v23.57l-11.29,11.29h-36.18ZM521.23,179.05h27.9l7.89-7.56v-16.44l-6.25-6.52h-28.56l-7.73-8v-15.51l7.51-7.18h27.3l6.91,7.18v3.07-3.07l-6.91-7.18h-27.3l-7.51,7.18v15.51l7.73,8h28.56l6.25,6.52v16.44l-7.89,7.56h-27.9l-6.8-6.47v-3.73,3.73l6.8,6.47Z"/>
        </g>
        <g>
          <path class="cls-1" d="M141.92,161.7c1.17,3.21,2.76,6.21,4.69,8.96h62.89c1.93-2.75,3.52-5.75,4.69-8.96h-72.28Z"/>
          <path class="cls-1" d="M139.61,148.55c0,1.51.1,3,.27,4.47h76.36c.17-1.47.27-2.96.27-4.47s-.1-3.01-.27-4.49h-76.36c-.17,1.47-.27,2.97-.27,4.49Z"/>
          <path class="cls-1" d="M155.02,179.34c6.42,4.81,14.39,7.66,23.03,7.66s16.61-2.85,23.03-7.66h-46.07Z"/>
          <path class="cls-1" d="M146.62,126.42c-1.94,2.74-3.53,5.75-4.7,8.96h72.27c-1.17-3.21-2.76-6.21-4.7-8.96h-62.87Z"/>
          <path class="cls-1" d="M201.07,117.75c-6.42-4.8-14.38-7.65-23.01-7.65s-16.6,2.84-23.01,7.65h46.03Z"/>
        </g>
      </g>
    </g>
  </g>
</svg>