<?xml version="1.0" encoding="UTF-8"?>
<svg id="Layer_2" data-name="Layer 2" xmlns="http://www.w3.org/2000/svg" viewBox="0 0 1140.99 96.53">
  <defs>
    <style>
      .cls-1 {
        fill: #c02227;
      }

      .cls-2 {
        fill: #be2428;
      }

      .cls-3 {
        fill: #111511;
      }
    </style>
  </defs>
  <g id="LOGO_COLOR_LIGHT-HORIZONTAL">
    <g id="Logo">
      <g>
        <path class="cls-3" d="M574.59,92.65V15.73h45.66l11.32,11.32v30.27l-12.36,12.36h-29.06v22.97h-15.55ZM582.28,61.61V23.47h34.61l7.36,7.36v22.42l-8.35,8.35h-33.62ZM582.34,84.85h-.06v-23.24h33.62l8.35-8.35v-22.42l-7.36-7.36h-34.56v61.37ZM590.14,54.13h21.48l4.45-4.39v-15.11l-3.35-3.35h-22.58v22.86Z"/>
        <path class="cls-3" d="M644.71,92.65V15.73h47.42l11.32,11.32v23.85l-6.7,6.15,6.7,7.31v28.3h-15.55v-22.8l-5.49-5.49h-22.14v28.3h-15.55ZM652.51,56.28V23.42h35.77l7.14,7.09v17.36l-9.29,8.41h-33.62ZM652.57,84.85h-.06v-28.62h33.68l9.62,10.82v17.8h-.05v-17.8l-9.56-10.82,9.18-8.35v-17.36l-7.09-7.03h-35.71v61.37ZM660.26,48.8h24.28l3.35-3.41v-10.77l-3.35-3.35h-24.28v17.53Z"/>
        <path class="cls-3" d="M815.11,92.65l-11.32-11.32V27.05l11.32-11.32h34.94l11.32,11.32v13.85h-15.49v-6.26l-3.35-3.35h-19.94l-3.3,3.46v39.06l3.3,3.3h19.94l3.35-3.35v-7.58h-15.22v-15.49h30.71v30.66l-11.32,11.32h-34.94ZM819.29,84.85h26.65l7.69-7.69v-18.57h-14.78,14.78v18.57l-7.69,7.69h-26.65l-7.69-7.69V30.84l7.36-7.36h27.53l7.14,7.36v2.91-2.91l-7.14-7.36h-27.53l-7.36,7.36v46.32l7.69,7.69Z"/>
        <path class="cls-3" d="M874.56,92.65V15.73h47.42l11.32,11.32v23.85l-6.7,6.15,6.7,7.31v28.3h-15.55v-22.8l-5.49-5.49h-22.14v28.3h-15.55ZM882.36,56.28V23.42h35.77l7.14,7.09v17.36l-9.29,8.41h-33.62ZM882.42,84.85h-.06v-28.62h33.68l9.62,10.82v17.8h-.05v-17.8l-9.56-10.82,9.18-8.35v-17.36l-7.09-7.03h-35.71v61.37ZM890.11,48.8h24.28l3.35-3.41v-10.77l-3.35-3.35h-24.28v17.53Z"/>
        <path class="cls-3" d="M947.92,92.65V15.73h50v15.55h-34.45v14.78h30.66v15.55h-30.66v15.49h34.45v15.55h-50ZM955.89,84.85h34.89-34.89v-31.04h31.04-31.04v-30.33h34.89-34.89v61.37Z"/>
        <path class="cls-3" d="M1021.88,92.65l-11.32-11.32v-13.85h15.55v6.26l3.35,3.35h21.1l3.35-3.35v-8.46l-3.35-3.35h-28.35l-11.32-11.32v-23.57l11.32-11.32h34.89l11.32,11.32v13.85h-15.55v-6.26l-3.35-3.35h-19.72l-3.41,3.35v8.41l3.41,3.35h28.35l11.32,11.32v23.62l-11.32,11.32h-36.26ZM1025.5,84.85h27.97l7.91-7.58v-16.48l-6.26-6.54h-28.63l-7.75-8.02v-15.55l7.53-7.2h27.36l6.92,7.2v3.08-3.08l-6.92-7.2h-27.36l-7.53,7.2v15.55l7.75,8.02h28.63l6.26,6.54v16.48l-7.91,7.58h-27.97l-6.81-6.48v-3.74,3.74l6.81,6.48Z"/>
        <path class="cls-3" d="M1093.41,92.65l-11.32-11.32v-13.85h15.55v6.26l3.35,3.35h21.1l3.35-3.35v-8.46l-3.35-3.35h-28.35l-11.32-11.32v-23.57l11.32-11.32h34.89l11.32,11.32v13.85h-15.55v-6.26l-3.35-3.35h-19.72l-3.41,3.35v8.41l3.41,3.35h28.35l11.32,11.32v23.62l-11.32,11.32h-36.26ZM1097.03,84.85h27.97l7.91-7.58v-16.48l-6.26-6.54h-28.63l-7.75-8.02v-15.55l7.53-7.2h27.36l6.92,7.2v3.08-3.08l-6.92-7.2h-27.36l-7.53,7.2v15.55l7.75,8.02h28.63l6.26,6.54v16.48l-7.91,7.58h-27.97l-6.81-6.48v-3.74,3.74l6.81,6.48Z"/>
      </g>
      <g>
        <path class="cls-1" d="M11.32,96.53L0,85.21v-13.85h15.55v6.26l3.35,3.35h21.1l3.35-3.35v-8.46l-3.35-3.35H11.65L.33,54.5v-23.57l11.32-11.32h34.89l11.32,11.32v13.85h-15.55v-6.26l-3.35-3.35h-19.72l-3.41,3.35v8.41l3.41,3.35h28.35l11.32,11.32v23.62l-11.32,11.32H11.32ZM14.94,88.73h27.97l7.91-7.58v-16.48l-6.26-6.54H15.93l-7.75-8.02v-15.55l7.53-7.2h27.36l6.92,7.2v3.08-3.08l-6.92-7.2H15.71l-7.53,7.2v15.55l7.75,8.02h28.62l6.26,6.54v16.48l-7.91,7.58H14.94l-6.81-6.48v-3.74,3.74l6.81,6.48Z"/>
        <path class="cls-1" d="M87.37,96.53v-61.37h-19.06v-15.55h53.62v15.55h-19.06v61.37h-15.49ZM95.17,88.73h-.06V27.36h19.61-39.23,19.67v61.37Z"/>
        <path class="cls-1" d="M132.33,96.53V30.93l11.32-11.32h35.49l11.32,11.32v65.6h-15.49v-22.64h-27.14v22.64h-15.49ZM140.03,66.42v-32.25l6.92-6.87h29.12l6.92,6.87v32.25h-42.96ZM140.08,88.73h-.06v-22.36h42.96v22.36h-.05v-54.56l-6.87-6.81h-29.12l-6.87,6.81v54.56ZM147.83,58.4h27.14v-19.89l-3.35-3.35h-20.44l-3.35,3.35v19.89Z"/>
        <path class="cls-1" d="M224.52,96.53l-20.66-20.66V19.61h15.55v48.68l11.21,11.15h6.32l11.15-11.15V19.61h15.55v56.26l-20.66,20.66h-18.46ZM228.31,88.73h10.88l16.7-16.43V27.36v44.94l-16.7,16.43h-10.88l-16.7-16.54V27.36v44.83l16.7,16.54Z"/>
        <path class="cls-1" d="M277.04,96.53V19.61h50v15.55h-34.45v14.78h30.66v15.55h-30.66v15.49h34.45v15.55h-50ZM285,88.73h34.89-34.89v-31.04h31.04-31.04v-30.33h34.89-34.89v61.37Z"/>
        <path class="cls-1" d="M340.43,96.53V19.61h42.97l11.32,11.32v19.61l-4.89,4.89,7.36,7.42v22.36l-11.32,11.32h-45.44ZM348.34,88.95h32.86l8.13-8.13v-14.83l-8.57-8.57h-3.68l9.89-11.1v-11.26l-7.09-7.91h-31.54v61.81ZM348.34,57.41v-30.27h31.54l7.09,7.91v11.26l-9.89,11.1h-28.73ZM348.34,88.95v-31.54h32.42l8.57,8.57v14.83l-8.13,8.13h-32.86ZM355.98,49.5h17.75l5.49-5.44v-5.55l-3.35-3.35h-19.89v14.34ZM355.98,80.98h22.31l3.35-3.35v-7.75l-4.83-4.84h-20.82v15.93Z"/>
        <path class="cls-1" d="M410.59,96.53V19.61h29.83l19.01,61.15h2.36V19.61h15.55v76.92h-29.83l-19.12-61.32h-2.25v61.32h-15.55ZM418.33,88.73h-.06V27.36h15.99l19.45,61.37h15.82V27.36h.05v61.37h-15.88l-19.45-61.37h-15.93v61.37Z"/>
        <path class="cls-1" d="M489.74,96.53v-15.55h15.05v-45.82h-15.05v-15.55h45.55v15.55h-15v45.82h15v15.55h-45.55ZM528.42,88.73h-15.88V27.36h15.88-31.76,15.88v61.37h-15.88,31.76Z"/>
        <polygon class="cls-1" points="505.78 14.5 519.19 0 534.96 0 519.36 14.5 505.78 14.5"/>
        <polygon class="cls-1" points="517.22 11.63 517.17 11.63 523.76 4.7 523.81 4.7 517.22 11.63"/>
      </g>
      <g>
        <path class="cls-2" d="M716.84,67.46c1.17,3.22,2.76,6.23,4.7,8.98h63.04c1.94-2.75,3.53-5.76,4.7-8.98h-72.45Z"/>
        <path class="cls-2" d="M714.52,54.28c0,1.52.1,3.01.27,4.48h76.54c.17-1.47.27-2.97.27-4.48s-.1-3.02-.27-4.5h-76.54c-.17,1.48-.27,2.97-.27,4.5Z"/>
        <path class="cls-2" d="M729.98,85.14c6.43,4.82,14.43,7.68,23.09,7.68s16.65-2.86,23.09-7.68h-46.17Z"/>
        <path class="cls-2" d="M721.55,32.1c-1.94,2.75-3.54,5.76-4.71,8.98h72.44c-1.17-3.22-2.77-6.23-4.71-8.98h-63.02Z"/>
        <path class="cls-2" d="M776.13,23.4c-6.43-4.81-14.42-7.66-23.07-7.66s-16.64,2.85-23.07,7.66h46.14Z"/>
      </g>
    </g>
  </g>
</svg>