<?xml version="1.0" encoding="UTF-8"?>
<svg id="car" xmlns="http://www.w3.org/2000/svg" viewBox="0 0 500 500">
  <g id="car-dark">
    <polygon points="279.71 203.74 249.97 203.74 248.16 203.74 248.16 226.82 297.38 226.82 279.71 203.74"/>
    <circle cx="301.86" cy="277.95" r="8.26" transform="translate(-70.45 450.47) rotate(-67.5)"/>
    <circle cx="193.71" cy="277.95" r="8.26"/>
    <path d="M249.97,74.62l-151.55,87.5v175l151.55,87.5,151.55-87.5v-175l-151.55-87.5ZM349.11,267.74h-27c1.55,3.07,2.43,6.54,2.43,10.21,0,12.52-10.15,22.68-22.68,22.68s-22.68-10.15-22.68-22.68c0-3.67.87-7.14,2.43-10.21h-67.65c1.55,3.07,2.43,6.54,2.43,10.21,0,12.52-10.15,22.68-22.68,22.68s-22.68-10.15-22.68-22.68c0-3.67.87-7.14,2.43-10.21h-22.64v-40.92h83.82v-36.6h49.58l27.04,36.6h24.78c5.11,5.11,7.97,7.43,13.07,12.53v28.39Z"/>
  </g>
</svg>