<svg width="117" height="136" viewBox="0 0 117 136" fill="none" xmlns="http://www.w3.org/2000/svg">
<path fill-rule="evenodd" clip-rule="evenodd" d="M0 33.776L58.5 0L117 33.776V101.328L58.5 135.104L0 101.328V33.776ZM53.8779 62.2357L51.0889 71.3286L58.5 65.6655L65.8311 71.3286L63.042 62.2357L70.4531 56.3334H61.3691L58.5 47.4L55.6309 56.3334H46.5469L53.8779 62.2357ZM39.375 76.3535V101L58.5 94.619L77.625 101V76.3535C79.6436 74.1202 81.2109 71.5679 82.3262 68.6964C83.4424 65.825 84 62.7675 84 59.5238C84 52.3984 81.5293 46.363 76.5889 41.4178C71.6484 36.4727 65.6191 34 58.5 34C51.3809 34 45.3516 36.4727 40.4111 41.4178C35.4707 46.363 33 52.3984 33 59.5238C33 62.7675 33.5576 65.825 34.6738 68.6964C35.7891 71.5679 37.3564 74.1202 39.375 76.3535ZM72.0469 73.0834C68.3281 76.8055 63.8125 78.6666 58.5 78.6666C53.1875 78.6666 48.6719 76.8055 44.9531 73.0834C41.2344 69.3611 39.375 64.8413 39.375 59.5238C39.375 54.2063 41.2344 49.6865 44.9531 45.9642C48.6719 42.2421 53.1875 40.381 58.5 40.381C63.8125 40.381 68.3281 42.2421 72.0469 45.9642C75.7656 49.6865 77.625 54.2063 77.625 59.5238C77.625 64.8413 75.7656 69.3611 72.0469 73.0834ZM58.5 88.238L45.75 91.5083V81.6178C47.6094 82.6814 49.6152 83.5188 51.7666 84.1304C53.918 84.7418 56.1621 85.0476 58.5 85.0476C60.8379 85.0476 63.082 84.7418 65.2334 84.1304C67.3848 83.5188 69.3906 82.6814 71.25 81.6178V91.5083L58.5 88.238Z" fill="white"/>
</svg>
