<?xml version="1.0" encoding="UTF-8"?>
<svg id="cog" xmlns="http://www.w3.org/2000/svg" viewBox="0 0 500 500">
  <g id="cog-dark">
    <ellipse cx="250" cy="249.5" rx="20.25" ry="20.71"/>
    <path d="M250,74.5l-151.55,87.5v175l151.55,87.5,151.55-87.5v-175l-151.55-87.5ZM322.73,260.4l-19.91,4.76c-1.14,4.02-2.72,7.86-4.65,11.46l10.77,17.76-15.04,15.44-17.37-11.07c-3.52,1.98-7.27,3.6-11.2,4.76l-4.65,20.36h-21.32l-4.65-20.36c-3.92-1.16-7.64-2.79-11.15-4.76l-17.43,11.07-15.1-15.44,10.82-17.82c-1.93-3.58-3.52-7.39-4.65-11.4l-19.91-4.76v-21.8l19.97-4.81c1.13-3.97,2.64-7.79,4.54-11.34l-10.77-17.82,15.1-15.38,17.37,11.01c3.52-1.98,7.27-3.6,11.2-4.76l4.65-20.36h21.32s4.65,20.36,4.65,20.36c3.95,1.17,7.73,2.77,11.26,4.76l17.32-11.01,15.04,15.38-10.77,17.76c1.94,3.6,3.52,7.43,4.65,11.46l19.91,4.76v21.8Z"/>
  </g>
</svg>