<?xml version="1.0" encoding="UTF-8"?>
<svg id="flame" xmlns="http://www.w3.org/2000/svg" viewBox="0 0 500 500">
  <path id="flame-dark" d="M250,74.5l-151.55,87.5v175l151.55,87.5,151.55-87.5v-175l-151.55-87.5ZM246.33,323.87s-82.94-20.81-27.65-85.96c26.16-30.82,23.36-56.54,13.7-68.12,0,0,66.89,49.1,30.05,99.56-13.95,19.11-25.7,25.77-16.11,54.52ZM280.98,304.5h0c-19.51,13.37-22.25,16.24-22.51,16.86.02.05.03.11.05.17,0,0-.12,0-.05-.17-1.65-5.91-9.24-19.42,12.83-43.66,12.21-13.41,19.22-43.07,15.41-50.14,0,0,36.44,48.12-5.72,76.94Z"/>
</svg>