<?xml version="1.0" encoding="UTF-8"?>
<svg id="seal" xmlns="http://www.w3.org/2000/svg" viewBox="0 0 500 500">
  <g id="seal-dark">
    <polygon points="250 216.43 239.46 238.48 215.24 241.68 232.95 258.52 228.52 282.55 250 270.9 271.48 282.55 267.05 258.52 284.76 241.68 260.54 238.48 250 216.43"/>
    <path d="M250,74.5l-151.55,87.5v175l151.55,87.5,151.55-87.5v-175l-151.55-87.5ZM325.64,280.83l-14.55,9.52-3.2,17.11-17.03,3.2-9.52,14.55-17.03-3.6-14.31,9.76-14.31-9.76-17.03,3.6-9.52-14.55-17.03-3.2-3.2-17.11-14.55-9.52,3.52-16.95-9.76-14.39,9.76-14.31-3.52-16.95,14.55-9.52,3.2-17.11,17.03-3.2,9.52-14.55,17.03,3.6,14.31-9.84,14.31,9.84,17.03-3.6,9.52,14.55,17.03,3.2,3.2,17.11,14.55,9.52-3.52,16.95,9.76,14.31-9.76,14.39,3.52,16.95Z"/>
  </g>
</svg>